<svg width="401" height="198" viewBox="0 0 401 198" fill="none" xmlns="http://www.w3.org/2000/svg">
<g clip-path="url(#clip0_312_2696)">
<path d="M334.837 198.009L328.332 75.0644C316.336 85.226 304.339 95.3857 292.34 105.547C292.342 105.271 292.346 104.995 292.347 104.719C302.222 92.1448 312.099 79.5701 321.974 66.9955C304.542 65.5436 287.11 64.0898 269.677 62.6379C269.452 62.4249 269.225 62.2119 269 61.999C286.617 60.3859 304.233 58.7729 321.85 57.1598C316.962 49.7095 312.075 42.261 307.189 34.8106C307.173 34.4884 307.158 34.1643 307.142 33.8421C314.247 38.7368 321.352 43.6296 328.457 48.5243C330.568 32.455 332.679 16.3876 334.791 0.318297C335.033 0.216441 335.275 0.112726 335.516 0.0108692C337.526 16.245 339.537 32.4791 341.547 48.7132C348.753 43.7648 355.958 38.8145 363.166 33.8662C363.173 34.1736 363.182 34.481 363.19 34.7884C358.199 42.1203 353.209 49.4521 348.216 56.7839C365.811 58.571 383.408 60.3563 401.004 62.1434C400.848 62.349 400.692 62.5527 400.537 62.7582C383.117 64.2139 365.698 65.6695 348.278 67.1233C358.179 79.6239 368.081 92.1263 377.984 104.627C377.977 104.918 377.967 105.21 377.96 105.501C365.822 95.4616 353.685 85.4204 341.549 75.3811C339.555 116.124 337.559 156.866 335.566 197.609L334.841 198.011L334.837 198.009Z" fill="white"/>
</g>
<path d="M88.832 171H74.368L65.408 147.32H24.448L15.616 171H1.408L36.992 79.864H52.736L88.832 171ZM30.72 130.424L28.8 135.416H60.928L59.008 130.424C54.4853 119.16 49.7493 106.701 44.8 93.048C38.912 108.749 34.2187 121.208 30.72 130.424ZM137.935 142.2V104.952H150.735V171H138.447V161.144C133.412 168.739 126.5 172.536 117.711 172.536C110.458 172.536 104.783 170.488 100.687 166.392C96.591 162.296 94.543 156.579 94.543 149.24V104.952H107.343V147.448C107.343 156.664 111.994 161.272 121.295 161.272C125.988 161.272 129.914 159.608 133.071 156.28C136.314 152.867 137.935 148.173 137.935 142.2ZM198.064 103.928C199.941 103.928 201.179 103.971 201.776 104.056V116.216H198.576C192.005 116.216 186.928 117.837 183.344 121.08C179.76 124.323 177.968 129.016 177.968 135.16V171H165.168V104.952H177.456V116.728C181.637 108.195 188.507 103.928 198.064 103.928ZM263.625 161.144H267.209V171C265.332 171.256 263.241 171.384 260.937 171.384C256.841 171.384 253.769 170.659 251.721 169.208C249.758 167.672 248.564 165.283 248.137 162.04C243.7 169.037 236.532 172.536 226.633 172.536C219.38 172.536 213.62 170.829 209.353 167.416C205.172 163.917 203.081 159.096 203.081 152.952C203.081 141.005 211.358 134.179 227.913 132.472L237.641 131.448C241.054 131.021 243.529 130.168 245.065 128.888C246.686 127.523 247.497 125.603 247.497 123.128C247.497 119.8 246.43 117.411 244.297 115.96C242.249 114.424 238.793 113.656 233.929 113.656C228.638 113.656 224.841 114.552 222.537 116.344C220.233 118.051 218.91 121.123 218.569 125.56H205.897C206.836 110.797 216.18 103.416 233.929 103.416C251.337 103.416 260.041 109.901 260.041 122.872V157.816C260.041 160.035 261.236 161.144 263.625 161.144ZM228.553 162.552C234.014 162.552 238.537 161.016 242.121 157.944C245.705 154.872 247.497 150.52 247.497 144.888V137.976C245.876 139.341 243.145 140.237 239.305 140.664L230.089 141.688C225.14 142.285 221.598 143.48 219.465 145.272C217.332 146.979 216.265 149.411 216.265 152.568C216.265 155.725 217.289 158.2 219.337 159.992C221.47 161.699 224.542 162.552 228.553 162.552Z" fill="white"/>
<defs>
<clipPath id="clip0_312_2696">
<rect width="132" height="198" fill="white" transform="matrix(1 0 0 -1 269 198)"/>
</clipPath>
</defs>
</svg>
