<svg width="1123" height="635" viewBox="0 0 1123 635" fill="none" xmlns="http://www.w3.org/2000/svg">
<path d="M525.374 123.685H593.549C614.684 86.0272 635.819 48.3695 656.954 10.7119C593.707 10.6067 530.434 10.5016 467.186 10.3964C432.453 67.8032 397.72 125.21 362.987 182.617H491.273C502.631 162.973 513.989 143.329 525.374 123.685Z" fill="#F4F4F4"/>
<path d="M525.374 241.523C514.016 221.879 502.658 202.235 491.273 182.591C448.502 182.591 405.758 182.591 362.987 182.591C395.743 239.182 428.474 295.774 461.231 352.392C526.718 352.392 592.205 352.392 657.692 352.392C636.32 315.444 614.921 278.47 593.549 241.523C570.833 241.523 548.09 241.523 525.374 241.523Z" fill="#C7C8CA"/>
<path d="M627.65 182.617C616.291 202.261 604.933 221.905 593.549 241.549C614.921 278.496 636.32 315.47 657.692 352.418C690.449 295.826 723.179 239.235 755.936 182.643C722.942 125.341 689.948 68.0397 656.954 10.738L593.549 123.711C604.907 143.355 616.265 162.999 627.65 182.643V182.617Z" fill="#D4D5D7"/>
<path fill-rule="evenodd" clip-rule="evenodd" d="M465.473 0.185303L655.06 0.351027L656.59 2.93491C673.68 31.7958 690.77 60.6502 707.86 89.5049L707.982 89.7116C725.031 118.497 742.081 147.283 759.13 176.076L763.901 184.134L754.523 184.01C712.551 183.458 670.398 183.011 628.062 182.722C608.46 182.591 588.884 182.485 569.362 182.407L566.265 182.394L564.769 179.689C548.952 151.092 533.128 122.488 517.304 93.8841L517.281 93.8417C501.449 65.2238 485.618 36.6057 469.792 7.99413L465.473 0.185303ZM483.34 10.7201C497.727 36.7294 512.118 62.7437 526.509 88.7581L526.539 88.8117C541.862 116.51 557.184 144.208 572.501 171.901C591.007 171.978 609.558 172.079 628.133 172.203C667.343 172.471 706.394 172.874 745.284 173.371C729.784 147.196 714.285 121.027 698.785 94.8569L698.76 94.8145C682.188 66.8343 665.616 38.8538 649.043 10.8673L483.34 10.7201Z" fill="#ADADAD"/>
<path fill-rule="evenodd" clip-rule="evenodd" d="M465.244 0L469.743 8.11276C493.127 50.2819 516.497 92.4656 539.862 134.641C548.175 149.646 556.487 164.65 564.799 179.651L566.216 182.21L564.787 184.762C548.951 213.033 533.122 241.304 517.292 269.575L517.207 269.728C501.349 298.05 485.491 326.372 469.626 354.695L465.184 362.625L460.505 354.832C426.852 298.793 393.225 242.779 359.599 186.767L358 184.103L465.244 0ZM370.24 184.023C401.775 236.552 433.31 289.081 464.867 341.632C479.245 315.962 493.618 290.291 507.992 264.62L508.005 264.597C523.386 237.126 538.768 209.654 554.156 182.182C546.303 168.009 538.45 153.834 530.597 139.659C508.743 100.212 486.887 60.7596 465.018 21.3187L370.24 184.023Z" fill="#999A9C"/>
<path fill-rule="evenodd" clip-rule="evenodd" d="M566.174 182.193L763.867 184.098L759.338 191.905C726.95 247.735 694.536 303.59 662.121 359.42L660.598 362.043H657.56H657.55H657.534L465.198 362.622L469.595 354.77C501.297 298.153 532.973 241.536 564.65 184.918L566.174 182.193ZM572.329 192.771C542.625 245.863 512.92 298.956 483.194 352.049L654.518 351.533C684.915 299.177 715.311 246.799 745.686 194.442L572.329 192.771Z" fill="#F4F4F4"/>
<path d="M1122.89 632.478H1099.72L1066.67 579.883L1049.34 596.81V632.478H1029.39V489H1049.34V573.636L1095.08 528.497H1120.27L1080.97 566.784L1122.89 632.478Z" fill="white"/>
<path d="M967.069 634.896C952.291 634.896 940.334 629.925 931.199 619.984C922.064 610.043 917.496 596.877 917.496 580.487C917.496 563.963 922.064 550.73 931.199 540.789C940.2 530.982 952.157 526.078 967.069 526.078C979.831 526.078 990.31 529.571 998.505 536.557C1006.83 543.543 1011.8 552.947 1013.42 564.769H992.862C991.519 557.918 988.496 552.678 983.794 549.051C979.227 545.424 973.651 543.61 967.069 543.61C958.336 543.61 951.351 546.834 946.111 553.283C941.006 559.597 938.454 568.665 938.454 580.487C938.454 592.309 941.006 601.445 946.111 607.893C951.351 614.207 958.336 617.364 967.069 617.364C973.786 617.364 979.495 615.484 984.197 611.722C988.899 607.96 991.855 602.519 993.064 595.399H1013.62C1012.01 607.49 1006.97 617.096 998.505 624.216C990.041 631.336 979.562 634.896 967.069 634.896Z" fill="white"/>
<path d="M890.454 619.984C880.915 629.925 868.489 634.896 853.174 634.896C837.859 634.896 825.432 629.925 815.893 619.984C806.355 610.043 801.586 596.877 801.586 580.487C801.586 563.963 806.355 550.73 815.893 540.789C825.297 530.982 837.724 526.078 853.174 526.078C868.623 526.078 881.05 530.982 890.454 540.789C899.858 550.596 904.56 563.829 904.56 580.487C904.56 597.011 899.858 610.177 890.454 619.984ZM830.806 607.692C836.314 614.274 843.77 617.566 853.174 617.566C862.578 617.566 869.967 614.274 875.34 607.692C880.848 601.109 883.602 592.041 883.602 580.487C883.602 568.934 880.848 559.866 875.34 553.283C869.967 546.7 862.578 543.409 853.174 543.409C843.77 543.409 836.314 546.7 830.806 553.283C825.297 559.866 822.543 568.934 822.543 580.487C822.543 592.041 825.297 601.109 830.806 607.692Z" fill="white"/>
<path d="M783.87 632.478H763.719V489H783.87V632.478Z" fill="white"/>
<path d="M723.102 557.515C731.297 560.605 737.477 565.172 741.642 571.218C745.806 577.129 747.889 583.98 747.889 591.772C747.889 604.4 743.724 614.342 735.395 621.596C727.2 628.851 715.378 632.478 699.928 632.478H635.242V489H697.107C711.616 489 722.699 492.426 730.357 499.277C738.149 506.129 742.045 515.13 742.045 526.28C742.045 540.252 735.731 550.663 723.102 557.515ZM695.697 507.539H656.804V550.462H695.697C712.489 550.462 720.886 543.006 720.886 528.094C720.886 521.645 718.669 516.607 714.236 512.98C709.937 509.353 703.757 507.539 695.697 507.539ZM656.804 613.939H698.719C707.586 613.939 714.37 611.991 719.072 608.095C723.774 604.199 726.125 598.624 726.125 591.369C726.125 576.054 716.99 568.397 698.719 568.397H656.804V613.939Z" fill="white"/>
<path d="M576.018 526.078C587.437 526.078 596.37 529.303 602.819 535.751C609.267 542.065 612.492 551.066 612.492 562.754V632.478H592.34V565.575C592.34 551.066 585.018 543.812 570.375 543.812C563.658 543.812 557.613 546.364 552.239 551.469C546.865 556.709 544.178 564.165 544.178 573.837V632.478H524.027V528.497H543.372V544.013C551.298 532.057 562.18 526.078 576.018 526.078Z" fill="white"/>
<path d="M501.676 513.786H481.122V492.224H501.676V513.786ZM501.475 632.478H481.323V528.497H501.475V632.478Z" fill="white"/>
<path d="M435.187 571.822L448.689 528.497H470.251L435.792 632.478H414.633L400.325 586.734C396.698 575.181 393.407 564.031 390.451 553.283C386.018 569.001 382.794 580.152 380.778 586.734L366.672 632.478H345.312L310.853 528.497H332.617L345.917 571.822C349.544 583.51 353.171 595.87 356.798 608.901C359.216 599.228 362.709 586.869 367.277 571.822L380.577 528.497H400.728L413.827 571.822C419.335 590.496 422.895 602.788 424.507 608.7C426.119 602.788 429.679 590.496 435.187 571.822Z" fill="white"/>
<path d="M298.537 526.885C301.493 526.885 303.441 526.952 304.381 527.086V546.23H299.343C288.999 546.23 281.005 548.783 275.363 553.888C269.72 558.993 266.899 566.381 266.899 576.054V632.478H246.748V528.497H266.093V547.036C272.676 533.602 283.491 526.885 298.537 526.885Z" fill="white"/>
<path d="M227.788 616.961H233.431V632.478C230.475 632.881 227.184 633.082 223.556 633.082C217.108 633.082 212.272 631.941 209.047 629.657C205.957 627.239 204.077 623.477 203.405 618.372C196.419 629.388 185.134 634.896 169.551 634.896C158.131 634.896 149.063 632.209 142.346 626.836C135.763 621.327 132.472 613.737 132.472 604.064C132.472 585.256 145.503 574.509 171.566 571.822L186.881 570.21C192.255 569.538 196.15 568.195 198.569 566.18C201.121 564.03 202.397 561.008 202.397 557.112C202.397 551.872 200.718 548.111 197.36 545.827C194.135 543.409 188.694 542.2 181.037 542.2C172.708 542.2 166.729 543.61 163.102 546.431C159.475 549.118 157.393 553.955 156.855 560.94H136.905C138.383 537.699 153.094 526.078 181.037 526.078C208.443 526.078 222.146 536.288 222.146 556.709V611.722C222.146 615.215 224.027 616.961 227.788 616.961ZM172.573 619.178C181.171 619.178 188.291 616.76 193.934 611.923C199.576 607.087 202.397 600.236 202.397 591.369V580.487C199.845 582.637 195.546 584.047 189.5 584.719L174.991 586.331C167.2 587.272 161.624 589.152 158.266 591.974C154.907 594.66 153.228 598.489 153.228 603.46C153.228 608.431 154.84 612.327 158.064 615.148C161.423 617.835 166.259 619.178 172.573 619.178Z" fill="white"/>
<path d="M0 489H51.1846C73.3512 489 90.8158 495.381 103.578 508.144C116.072 520.906 122.319 538.438 122.319 560.739C122.319 583.04 116.072 600.572 103.578 613.334C90.8158 626.097 73.3512 632.478 51.1846 632.478H0V489ZM21.562 613.536H50.9831C66.7012 613.536 78.7249 608.968 87.0542 599.833C95.5178 590.697 99.7496 577.666 99.7496 560.739C99.7496 543.812 95.5178 530.781 87.0542 521.645C78.7249 512.51 66.7012 507.942 50.9831 507.942H21.562V613.536Z" fill="white"/>
</svg>
