<svg width="5625" height="240" viewBox="0 0 5625 240" fill="none" xmlns="http://www.w3.org/2000/svg">
<path d="M978.781 3.59961H1078.38V36.7996H1015.3V98.2196H1065.43V131.42H1015.3V202.8H1078.38V236H978.781V3.59961Z" fill="white"/>
<path d="M851.191 203.464L918.919 36.7996H854.511V3.59961H958.095V36.1356L890.367 202.8H958.095V236H851.191V203.464Z" fill="white"/>
<path d="M794.625 3.59961H831.145V236H794.625V3.59961Z" fill="white"/>
<path d="M655.211 3.59961H691.731V98.2196H730.907V3.59961H767.427V236H730.907V131.42H691.731V236H655.211V3.59961Z" fill="white"/>
<path d="M562.828 36.7996H524.648V3.59961H637.528V36.7996H599.348V236H562.828V36.7996Z" fill="white"/>
<path d="M444.481 3.59961H493.949L531.797 236H495.277L488.637 189.852V190.516H447.137L440.497 236H406.633L444.481 3.59961ZM484.321 158.976L468.053 44.1036H467.389L451.453 158.976H484.321Z" fill="white"/>
<path d="M299.867 3.59961H353.651C371.801 3.59961 385.413 8.46895 394.487 18.2076C403.562 27.9463 408.099 42.2223 408.099 61.0356V83.9436C408.099 102.757 403.562 117.033 394.487 126.772C385.413 136.51 371.801 141.38 353.651 141.38H336.387V236H299.867V3.59961ZM353.651 108.18C359.627 108.18 364.054 106.52 366.931 103.2C370.03 99.8796 371.579 94.2356 371.579 86.2676V58.7116C371.579 50.7436 370.03 45.0996 366.931 41.7796C364.054 38.4596 359.627 36.7996 353.651 36.7996H336.387V108.18H353.651Z" fill="white"/>
<path d="M121.223 3.59961H173.347L196.587 169.932H197.251L220.491 3.59961H272.615V236H238.087V60.0396H237.423L210.863 236H180.319L153.759 60.0396H153.095V236H121.223V3.59961Z" fill="white"/>
<path d="M0.613281 3.59961H100.213V36.7996H37.1333V98.2196H87.2653V131.42H37.1333V202.8H100.213V236H0.613281V3.59961Z" fill="white"/>
<path d="M2903.42 3.59961H2959.2C2977.35 3.59961 2990.96 8.46895 3000.03 18.2076C3009.11 27.9463 3013.65 42.2223 3013.65 61.0356V178.564C3013.65 197.377 3009.11 211.653 3000.03 221.392C2990.96 231.13 2977.35 236 2959.2 236H2903.42V3.59961ZM2958.53 202.8C2964.51 202.8 2969.05 201.029 2972.15 197.488C2975.47 193.946 2977.13 188.192 2977.13 180.224V59.3756C2977.13 51.4076 2975.47 45.653 2972.15 42.1116C2969.05 38.5703 2964.51 36.7996 2958.53 36.7996H2939.94V202.8H2958.53Z" fill="white"/>
<path d="M2761.74 3.59961H2807.55L2843.08 142.708H2843.74V3.59961H2876.28V236H2838.76L2794.94 66.3476H2794.27V236H2761.74V3.59961Z" fill="white"/>
<path d="M2656.7 3.59961H2706.17L2744.02 236H2707.5L2700.86 189.852V190.516H2659.36L2652.72 236H2618.86L2656.7 3.59961ZM2696.54 158.976L2680.28 44.1036H2679.61L2663.68 158.976H2696.54Z" fill="white"/>
<path d="M2551.34 36.7996H2513.16V3.59961H2626.04V36.7996H2587.86V236H2551.34V36.7996Z" fill="white"/>
<path d="M2446.74 239.319C2429.03 239.319 2415.64 234.339 2406.57 224.379C2397.49 214.198 2392.95 199.701 2392.95 180.887V167.607H2427.48V183.543C2427.48 198.594 2433.79 206.119 2446.41 206.119C2452.6 206.119 2457.25 204.349 2460.35 200.807C2463.67 197.045 2465.33 191.069 2465.33 182.879C2465.33 173.141 2463.12 164.619 2458.69 157.315C2454.26 149.79 2446.07 140.826 2434.12 130.423C2419.07 117.143 2408.56 105.191 2402.58 94.5673C2396.61 83.722 2393.62 71.5486 2393.62 58.0473C2393.62 39.6766 2398.27 25.5113 2407.56 15.5513C2416.86 5.36996 2430.36 0.279297 2448.07 0.279297C2465.55 0.279297 2478.72 5.36996 2487.57 15.5513C2496.65 25.5113 2501.19 39.898 2501.19 58.7113V68.3393H2466.66V56.3873C2466.66 48.4193 2465.11 42.6646 2462.01 39.1233C2458.91 35.3606 2454.37 33.4793 2448.4 33.4793C2436.22 33.4793 2430.14 40.894 2430.14 55.7233C2430.14 64.134 2432.35 71.9913 2436.78 79.2953C2441.43 86.5993 2449.73 95.4526 2461.68 105.855C2476.95 119.135 2487.46 131.198 2493.22 142.043C2498.97 152.889 2501.85 165.615 2501.85 180.223C2501.85 199.258 2497.09 213.866 2487.57 224.047C2478.28 234.229 2464.67 239.319 2446.74 239.319Z" fill="white"/>
<path d="M2265.36 3.59961H2319.48C2338.29 3.59961 2352.01 8.02628 2360.64 16.8796C2369.28 25.5116 2373.59 38.9023 2373.59 57.0516V71.3276C2373.59 95.4529 2365.62 110.725 2349.69 117.144V117.808C2358.54 120.464 2364.74 125.886 2368.28 134.076C2372.04 142.265 2373.92 153.221 2373.92 166.944V207.78C2373.92 214.42 2374.14 219.842 2374.59 224.048C2375.03 228.032 2376.14 232.016 2377.91 236H2340.72C2339.4 232.237 2338.51 228.696 2338.07 225.376C2337.62 222.056 2337.4 216.08 2337.4 207.448V164.952C2337.4 154.328 2335.63 146.913 2332.09 142.708C2328.77 138.502 2322.91 136.4 2314.5 136.4H2301.88V236H2265.36V3.59961ZM2315.16 103.2C2322.46 103.2 2327.89 101.318 2331.43 97.5556C2335.19 93.7929 2337.07 87.485 2337.07 78.6316V60.7036C2337.07 52.293 2335.52 46.2063 2332.42 42.4436C2329.55 38.681 2324.9 36.7996 2318.48 36.7996H2301.88V103.2H2315.16Z" fill="white"/>
<path d="M2144.75 3.59961H2244.35V36.7996H2181.27V98.2196H2231.4V131.42H2181.27V202.8H2244.35V236H2144.75V3.59961Z" fill="white"/>
<path d="M2009.88 3.59961H2065.65C2083.8 3.59961 2097.41 8.46895 2106.49 18.2076C2115.56 27.9463 2120.1 42.2223 2120.1 61.0356V178.564C2120.1 197.377 2115.56 211.653 2106.49 221.392C2097.41 231.13 2083.8 236 2065.65 236H2009.88V3.59961ZM2064.99 202.8C2070.96 202.8 2075.5 201.029 2078.6 197.488C2081.92 193.946 2083.58 188.192 2083.58 180.224V59.3756C2083.58 51.4076 2081.92 45.653 2078.6 42.1116C2075.5 38.5703 2070.96 36.7996 2064.99 36.7996H2046.39V202.8H2064.99Z" fill="white"/>
<path d="M1868.19 3.59961H1914.01L1949.53 142.708H1950.2V3.59961H1982.73V236H1945.22L1901.39 66.3476H1900.73V236H1868.19V3.59961Z" fill="white"/>
<path d="M1787.73 239.32C1770.03 239.32 1756.53 234.34 1747.23 224.38C1737.93 214.198 1733.29 199.701 1733.29 180.888V3.59961H1769.81V183.544C1769.81 191.512 1771.35 197.266 1774.45 200.808C1777.77 204.349 1782.42 206.12 1788.4 206.12C1794.37 206.12 1798.91 204.349 1802.01 200.808C1805.33 197.266 1806.99 191.512 1806.99 183.544V3.59961H1842.18V180.888C1842.18 199.701 1837.53 214.198 1828.24 224.38C1818.94 234.34 1805.44 239.32 1787.73 239.32Z" fill="white"/>
<path d="M4282.92 3.59961H4382.52V36.7996H4319.44V98.2196H4369.57V131.42H4319.44V202.8H4382.52V236H4282.92V3.59961Z" fill="white"/>
<path d="M4190.54 36.7996H4152.36V3.59961H4265.24V36.7996H4227.06V236H4190.54V36.7996Z" fill="white"/>
<path d="M4072.19 3.59961H4121.66L4159.5 236H4122.98L4116.34 189.852V190.516H4074.84L4068.2 236H4034.34L4072.19 3.59961ZM4112.03 158.976L4095.76 44.1036H4095.1L4079.16 158.976H4112.03Z" fill="white"/>
<path d="M3923.36 3.59961H4022.96V36.7996H3959.88V98.2196H4010.01V131.42H3959.88V202.8H4022.96V236H3923.36V3.59961Z" fill="white"/>
<path d="M3788.48 3.59961H3844.26C3862.41 3.59961 3876.02 8.46895 3885.1 18.2076C3894.17 27.9463 3898.71 42.2223 3898.71 61.0356V178.564C3898.71 197.377 3894.17 211.653 3885.1 221.392C3876.02 231.13 3862.41 236 3844.26 236H3788.48V3.59961ZM3843.6 202.8C3849.57 202.8 3854.11 201.029 3857.21 197.488C3860.53 193.946 3862.19 188.192 3862.19 180.224V59.3756C3862.19 51.4076 3860.53 45.653 3857.21 42.1116C3854.11 38.5703 3849.57 36.7996 3843.6 36.7996H3825V202.8H3843.6Z" fill="white"/>
<path d="M3724.61 3.59961H3761.13V236H3724.61V3.59961Z" fill="white"/>
<path d="M5509.83 3.59961H5555.65L5591.17 142.708H5591.84V3.59961H5624.37V236H5586.86L5543.03 66.3476H5542.37V236H5509.83V3.59961Z" fill="white"/>
<path d="M5431.94 239.319C5414.23 239.319 5400.73 234.339 5391.43 224.379C5382.14 214.198 5377.49 199.701 5377.49 180.887V58.7113C5377.49 39.898 5382.14 25.5113 5391.43 15.5513C5400.73 5.36996 5414.23 0.279297 5431.94 0.279297C5449.64 0.279297 5463.14 5.36996 5472.44 15.5513C5481.74 25.5113 5486.38 39.898 5486.38 58.7113V78.6313H5451.86V56.3873C5451.86 41.1153 5445.55 33.4793 5432.93 33.4793C5420.32 33.4793 5414.01 41.1153 5414.01 56.3873V183.543C5414.01 198.594 5420.32 206.119 5432.93 206.119C5445.55 206.119 5451.86 198.594 5451.86 183.543V138.059H5433.6V104.859H5486.38V180.887C5486.38 199.701 5481.74 214.198 5472.44 224.379C5463.14 234.339 5449.64 239.319 5431.94 239.319Z" fill="white"/>
<path d="M5316.27 3.59961H5352.79V236H5316.27V3.59961Z" fill="white"/>
<path d="M5240.22 239.319C5222.51 239.319 5209.12 234.339 5200.05 224.379C5190.97 214.198 5186.44 199.701 5186.44 180.887V167.607H5220.97V183.543C5220.97 198.594 5227.27 206.119 5239.89 206.119C5246.09 206.119 5250.73 204.349 5253.83 200.807C5257.15 197.045 5258.81 191.069 5258.81 182.879C5258.81 173.141 5256.6 164.619 5252.17 157.315C5247.75 149.79 5239.56 140.826 5227.61 130.423C5212.55 117.143 5202.04 105.191 5196.07 94.5673C5190.09 83.722 5187.1 71.5486 5187.1 58.0473C5187.1 39.6766 5191.75 25.5113 5201.05 15.5513C5210.34 5.36996 5223.84 0.279297 5241.55 0.279297C5259.03 0.279297 5272.2 5.36996 5281.06 15.5513C5290.13 25.5113 5294.67 39.898 5294.67 58.7113V68.3393H5260.14V56.3873C5260.14 48.4193 5258.59 42.6646 5255.49 39.1233C5252.39 35.3606 5247.86 33.4793 5241.88 33.4793C5229.71 33.4793 5223.62 40.894 5223.62 55.7233C5223.62 64.134 5225.83 71.9913 5230.26 79.2953C5234.91 86.5993 5243.21 95.4526 5255.16 105.855C5270.43 119.135 5280.95 131.198 5286.7 142.043C5292.46 152.889 5295.33 165.615 5295.33 180.223C5295.33 199.258 5290.57 213.866 5281.06 224.047C5271.76 234.229 5258.15 239.319 5240.22 239.319Z" fill="white"/>
<path d="M5071.49 3.59961H5171.09V36.7996H5108.01V98.2196H5158.14V131.42H5108.01V202.8H5171.09V236H5071.49V3.59961Z" fill="white"/>
<path d="M4936.61 3.59961H4992.39C5010.54 3.59961 5024.15 8.46895 5033.23 18.2076C5042.3 27.9463 5046.84 42.2223 5046.84 61.0356V178.564C5046.84 197.377 5042.3 211.653 5033.23 221.392C5024.15 231.13 5010.54 236 4992.39 236H4936.61V3.59961ZM4991.73 202.8C4997.7 202.8 5002.24 201.029 5005.34 197.488C5008.66 193.946 5010.32 188.192 5010.32 180.224V59.3756C5010.32 51.4076 5008.66 45.653 5005.34 42.1116C5002.24 38.5703 4997.7 36.7996 4991.73 36.7996H4973.13V202.8H4991.73Z" fill="white"/>
</svg>
